<svg xmlns="http://www.w3.org/2000/svg" width="192" height="192" viewBox="0 0 192 192">
    <defs>
        <linearGradient id="sk6v5qna1a" x1="30.3%" x2="70.812%" y1="0%" y2="100%">
            <stop offset="0%" stop-color="#12B4BB"/>
            <stop offset="100%" stop-color="#3176D8"/>
        </linearGradient>
    </defs>
    <g fill="none" fill-rule="evenodd">
        <g>
            <g>
                <g>
                    <path fill="#000" fill-opacity=".25" d="M191.067 95.535c.031 30.286-14.35 58.779-38.733 76.747-3.154 2.392-6.461 4.573-9.9 6.528-1.425.799-2.85 1.563-4.343 2.327-26.217 12.967-56.922 13.248-83.372.764-1.667-.799-3.474-1.632-4.967-2.535-3.502-1.896-6.868-4.032-10.074-6.39-42.801-30.84-52.486-90.526-21.639-133.312C48.89-3.123 108.595-12.805 151.396 18.036c24.921 17.954 39.681 46.79 39.671 77.5" transform="translate(-1062 -1625) translate(1062 1625) translate(.79 .523)"/>
                    <path fill="url(#sk6v5qna1a)" d="M63.689 31.845h63.689c4.397 0 7.961 3.564 7.961 7.96v107.476c0 4.397-3.564 7.961-7.961 7.961H63.689c-4.397 0-7.961-3.564-7.961-7.961V39.806c0-4.397 3.564-7.961 7.961-7.961z" transform="translate(-1062 -1625) translate(1062 1625) translate(.79 .523)"/>
                    <path fill="#FFF" d="M117.357 40.776c.246.342 6.04 8.532 6.04 21.2 0 12.713-5.84 20.388-6.089 20.709-.46.593-1.166.907-1.88.907-.49 0-.982-.146-1.403-.45-1.038-.746-1.251-2.162-.475-3.161.046-.062 5.156-6.872 5.156-18.004 0-11.188-5.156-18.558-5.208-18.631-.732-1.027-.464-2.433.6-3.14 1.066-.707 2.522-.454 3.259.57zm-8.483 4.475c.195.27 4.76 6.722 4.76 16.662 0 9.984-4.612 16.044-4.808 16.297-.46.593-1.166.907-1.881.907-.488 0-.98-.147-1.402-.45-1.038-.746-1.251-2.162-.476-3.162.033-.042 3.875-5.187 3.875-13.592 0-8.542-3.884-14.033-3.923-14.087-.738-1.025-.474-2.433.59-3.144 1.065-.71 2.527-.456 3.265.569zm-8.62 4.292c.148.2 3.61 4.984 3.61 12.309 0 7.235-3.383 11.712-3.647 12.05l-.012.015c-.462.583-1.16.888-1.866.888-.497 0-.997-.15-1.422-.464-1.03-.757-1.227-2.175-.44-3.166.018-.024 2.695-3.557 2.695-9.323 0-5.807-2.717-9.658-2.745-9.695-.75-1.018-.5-2.428.557-3.15 1.056-.722 2.52-.482 3.27.536zm-11.884 3.81c.984-.848 2.495-.766 3.374.182.033.035.261.286.579.723.919 1.21 2.5 3.817 2.5 7.44l-.002.081.001.077c0 3.618-1.577 6.223-2.496 7.436-.32.439-.549.69-.582.727-.88.947-2.39 1.029-3.374.181-.984-.847-1.07-2.302-.19-3.25.003-.001.029-.03.071-.083l-.01-.01-.018.018c.015-.016.101-.109.225-.266.51-.704 1.569-2.453 1.593-4.83-.023-2.382-1.087-4.135-1.595-4.838-.082-.103-.147-.179-.186-.222l-.02-.023.011-.01c-.042-.052-.068-.081-.07-.083-.88-.948-.795-2.403.189-3.25z" transform="translate(-1062 -1625) translate(1062 1625) translate(.79 .523)"/>
                </g>
            </g>
        </g>
    </g>
</svg>
