<svg xmlns="http://www.w3.org/2000/svg" width="192" height="192" viewBox="0 0 192 192">
    <defs>
        <linearGradient id="ae4r06juha" x1="30.3%" x2="70.812%" y1="0%" y2="100%">
            <stop offset="0%" stop-color="#12B4BB"/>
            <stop offset="100%" stop-color="#3176D8"/>
        </linearGradient>
    </defs>
    <g fill="none" fill-rule="evenodd">
        <g>
            <g>
                <path fill="#FFF" d="M192 96.002c.031 30.433-14.42 59.065-38.922 77.12-3.17 2.405-6.493 4.597-9.95 6.561-1.43.803-2.862 1.57-4.363 2.338-26.345 13.03-57.2 13.313-83.779.768-1.675-.803-3.49-1.64-4.991-2.547-3.52-1.906-6.902-4.052-10.124-6.421-43.01-30.992-52.742-90.968-21.744-133.964C49.13-3.138 109.125-12.867 152.135 18.124 177.178 36.165 192.01 65.144 192 96.002" transform="translate(-1291 -1625) translate(1291 1625)"/>
                <path fill="url(#ae4r06juha)" d="M126.28 31.291c4.42 0 8 3.582 8 8v108c0 4.419-3.58 8-8 8h-64c-4.417 0-8-3.581-8-8v-108c0-4.418 3.583-8 8-8h64zm-6.046 6.62c-.494-.654-1.47-.816-2.182-.364-.714.452-.893 1.351-.403 2.008.035.047 3.489 4.76 3.489 11.914 0 7.119-3.423 11.474-3.454 11.513-.52.64-.377 1.545.318 2.022.282.194.612.287.94.287.478 0 .951-.2 1.26-.58.166-.205 4.079-5.113 4.079-13.242 0-8.1-3.882-13.338-4.047-13.557zm-5.682 2.862c-.495-.655-1.474-.818-2.187-.363-.714.455-.89 1.355-.396 2.01.026.035 2.628 3.546 2.628 9.009 0 5.374-2.574 8.664-2.596 8.691-.52.64-.377 1.545.319 2.022.282.194.612.288.939.288.479 0 .952-.2 1.26-.58.132-.162 3.221-4.037 3.221-10.421 0-6.357-3.058-10.483-3.188-10.656zm-5.775 2.745c-.502-.65-1.483-.804-2.191-.342-.708.461-.875 1.363-.373 2.014.018.023 1.839 2.486 1.839 6.2 0 3.687-1.794 5.946-1.806 5.961-.527.634-.395 1.54.295 2.025.285.2.62.297.953.297.473 0 .94-.196 1.25-.568.1-.12 2.45-3.004 2.45-7.716 0-4.684-2.319-7.743-2.417-7.87zm-5.701 2.553c-.59-.606-1.602-.658-2.261-.117-.66.542-.716 1.473-.127 2.079.002.001.02.02.04.06l-.006-.008c.005.006.062.065.144.164.34.45 1.053 1.57 1.068 3.094-.016 1.52-.725 2.638-1.066 3.088-.05.06-.09.106-.117.135l-.022.024.007.006-.025.029-.023.025c-.589.606-.532 1.536.127 2.078.66.542 1.672.49 2.26-.116.023-.023.177-.184.39-.465.616-.775 1.673-2.442 1.673-4.755l-.001-.05v-.052c0-2.316-1.058-3.983-1.674-4.757-.212-.28-.365-.44-.387-.462z" transform="translate(-1291 -1625) translate(1291 1625)"/>
                <path fill="#FFF" d="M89.834 142.014l.062.014 5.876 2.186c.127.048.216.167.227.305.01.139-.058.27-.177.339l-5.46 3.112c-.096.054-.217.034-.29-.056-.047-.058-.06-.138-.043-.211l.523-2.125c.038-.154.158-.271.31-.303l2.366-.5c.015-.002.025-.016.023-.031 0-.015-.013-.027-.028-.028l-2.414-.108c-.154-.007-.291-.104-.352-.25l-.847-2.012c-.029-.07-.028-.15.01-.216.057-.1.174-.14.276-.102zM63.994 128c.731 0 1.323.605 1.323 1.352v3.932h3.872c3.594 0 6.518 2.988 6.518 6.661 0 3.673-2.924 6.661-6.518 6.661s-6.518-2.988-6.518-6.66v-3.957h-1.348c-.73 0-1.323-.606-1.323-1.353s.592-1.352 1.323-1.352h1.348v-3.932c0-.747.592-1.352 1.323-1.352zm13.674 5.284c.73 0 1.323.605 1.323 1.352v10.618c0 .747-.592 1.352-1.323 1.352s-1.323-.605-1.323-1.352v-10.618c0-.747.592-1.352 1.323-1.352zM82.765 128c.73 0 1.323.605 1.323 1.352v3.932h3.316c.731 0 1.323.605 1.323 1.352 0 .747-.592 1.353-1.323 1.353h-3.316v3.956c0 2.163 1.656 3.9 3.77 3.955.73.02 1.308.64 1.29 1.387-.019.735-.608 1.317-1.323 1.317h-.034c-1.706-.044-3.302-.757-4.496-2.006-1.195-1.251-1.854-2.904-1.854-4.653v-3.956h-.563c-.731 0-1.323-.606-1.323-1.353s.592-1.352 1.323-1.352h.563v-3.932c0-.747.593-1.352 1.324-1.352zm-13.576 7.989h-3.872v3.956c0 2.182 1.737 3.957 3.872 3.957s3.872-1.775 3.872-3.957-1.737-3.956-3.872-3.956zm8.479-6.374c.812 0 1.47.673 1.47 1.503 0 .83-.658 1.502-1.47 1.502-.812 0-1.47-.672-1.47-1.502s.658-1.503 1.47-1.503z" transform="translate(-1291 -1625) translate(1291 1625)"/>
            </g>
        </g>
    </g>
</svg>
