<svg xmlns="http://www.w3.org/2000/svg" width="192" height="192" viewBox="0 0 192 192">
    <g fill="none" fill-rule="evenodd">
        <g>
            <g>
                <path fill="#104A58" d="M192 96.002c.031 30.43-14.417 59.062-38.922 77.12-3.17 2.405-6.493 4.597-9.95 6.561-1.43.803-2.862 1.57-4.363 2.338-26.345 13.03-57.2 13.313-83.779.768-1.675-.803-3.49-1.64-4.991-2.547-3.52-1.906-6.902-4.052-10.124-6.421-43.01-30.992-52.742-90.968-21.744-133.964C49.13-3.138 109.125-12.867 152.135 18.124c25.04 18.041 39.875 47.02 39.865 77.878" transform="translate(-1252 -304) translate(1252 304)"/>
                <path fill="#FFF" d="M58 116h60c3.314 0 6 2.686 6 6s-2.686 6-6 6H58c-3.314 0-6-2.686-6-6s2.686-6 6-6zm80 0c3.314 0 6 2.686 6 6s-2.686 6-6 6-6-2.686-6-6 2.686-6 6-6zM58 92h60c3.314 0 6 2.686 6 6s-2.686 6-6 6H58c-3.314 0-6-2.686-6-6s2.686-6 6-6zm80 0c3.314 0 6 2.686 6 6s-2.686 6-6 6-6-2.686-6-6 2.686-6 6-6zm-20-24c3.314 0 6 2.686 6 6s-2.686 6-6 6H58c-3.314 0-6-2.686-6-6s2.686-6 6-6h60zm20 0c3.314 0 6 2.686 6 6s-2.686 6-6 6-6-2.686-6-6 2.686-6 6-6z" transform="translate(-1252 -304) translate(1252 304)"/>
            </g>
        </g>
    </g>
</svg>
