<svg xmlns="http://www.w3.org/2000/svg" width="57" height="30" viewBox="0 0 57 30">
    <g fill="none" fill-rule="evenodd">
        <path fill="#FFF" d="M8.252 11.848v5.795c0 3.196 2.696 5.795 6.009 5.795s6.008-2.6 6.008-5.795c0-3.196-2.695-5.795-6.008-5.795H8.252zM14.261 27.4c-5.578 0-10.116-4.377-10.116-9.757v-5.795H2.054C.919 11.848 0 10.96 0 9.867s.92-1.98 2.054-1.98h2.091v-5.76c0-1.094.92-1.98 2.054-1.98s2.053.886 2.053 1.98v5.76h6.009c5.577 0 10.115 4.376 10.115 9.756S19.838 27.4 14.261 27.4zM27.419 27.4c-1.134 0-2.054-.887-2.054-1.98V9.866c0-1.094.92-1.98 2.054-1.98s2.053.886 2.053 1.98v15.552c0 1.094-.919 1.98-2.053 1.98M43.234 23.436c-3.281-.08-5.852-2.625-5.852-5.793v-5.795h5.147c1.134 0 2.054-.887 2.054-1.981s-.92-1.98-2.054-1.98h-5.147v-5.76c0-1.094-.919-1.98-2.053-1.98s-2.054.886-2.054 1.98v5.76h-.874c-1.135 0-2.054.886-2.054 1.98 0 1.094.92 1.98 2.054 1.98h.874v5.796c0 2.562 1.022 4.983 2.877 6.816 1.852 1.829 4.33 2.872 6.977 2.937l.053.001c1.11 0 2.024-.854 2.052-1.93.03-1.094-.866-2.003-2-2.03" transform="translate(.918)"/>
        <path fill="#D32733" d="M29.7 4.713c0 1.216-1.021 2.201-2.281 2.201-1.26 0-2.282-.985-2.282-2.2 0-1.216 1.022-2.202 2.282-2.202s2.282.986 2.282 2.201M47.118 29.398l8.475-4.56c.184-.099.291-.292.274-.495-.017-.203-.154-.377-.352-.447l-9.118-3.203c-.159-.056-.34.003-.43.15-.058.096-.06.214-.014.316l1.313 2.949c.095.212.308.354.548.364l3.746.16c.023 0 .042.018.043.04.002.022-.013.042-.036.047l-3.672.73c-.235.047-.422.22-.48.444l-.812 3.113c-.028.107-.006.224.067.31.112.13.301.161.448.082" transform="translate(.918)"/>
    </g>
</svg>
