<svg xmlns="http://www.w3.org/2000/svg" width="47" height="48" viewBox="0 0 47 48">
    <defs>
        <linearGradient id="1p7j7rz6la" x1="30.3%" x2="70.812%" y1="0%" y2="100%">
            <stop offset="0%" stop-color="#12B4BB"/>
            <stop offset="100%" stop-color="#3176D8"/>
        </linearGradient>
    </defs>
    <g fill="none" fill-rule="evenodd">
        <g>
            <g>
                <g>
                    <g>
                        <path fill="#FFF" d="M46.08 23.04c.008 7.304-3.46 14.176-9.341 18.51-.761.577-1.559 1.102-2.388 1.574-.344.193-.687.377-1.047.561-6.323 3.127-13.728 3.195-20.107.184-.402-.192-.838-.393-1.198-.611-.845-.457-1.657-.972-2.43-1.541C-.753 34.279-3.089 19.885 4.351 9.566 11.79-.754 26.19-3.088 36.512 4.35c6.01 4.33 9.57 11.284 9.568 18.69" transform="translate(-27 -87) translate(0 -.041) translate(12.72 87.361) translate(14.365 .656)"/>
                        <path fill="url(#1p7j7rz6la)" d="M30.307 7.51c1.06 0 1.92.86 1.92 1.92v25.92c0 1.06-.86 1.92-1.92 1.92h-15.36c-1.06 0-1.92-.86-1.92-1.92V9.43c0-1.06.86-1.92 1.92-1.92h15.36zm-1.45 1.589c-.12-.157-.353-.196-.525-.088-.17.109-.214.325-.096.482.008.011.837 1.143.837 2.86 0 1.708-.821 2.753-.829 2.763-.125.153-.09.37.077.485.067.046.146.069.225.069.115 0 .228-.048.302-.14.04-.048.98-1.226.98-3.177 0-1.945-.932-3.202-.972-3.254zm-1.365.687c-.118-.158-.353-.197-.525-.088-.17.11-.213.326-.094.483.006.008.63.85.63 2.162 0 1.29-.617 2.08-.623 2.086-.124.153-.09.37.077.485.067.047.147.07.225.07.115 0 .229-.049.303-.14.031-.039.773-.969.773-2.501 0-1.526-.734-2.516-.766-2.557zm-1.386.658c-.12-.156-.356-.193-.525-.082-.17.11-.21.327-.09.483.005.006.441.597.441 1.488 0 .885-.43 1.428-.433 1.431-.126.152-.095.37.07.486.07.048.15.071.23.071.113 0 .225-.046.3-.136.024-.029.588-.72.588-1.852 0-1.124-.557-1.858-.58-1.889zm-1.368.613c-.141-.145-.384-.158-.542-.028-.159.13-.172.353-.03.499l.009.014.033.038c.082.108.253.377.256.742-.004.365-.174.633-.256.741-.013.017-.024.028-.033.039l.002.001-.009.01c-.144.148-.13.372.028.502s.4.117.542-.028c.006-.006.042-.044.094-.112.148-.186.401-.586.401-1.14v-.025l-.009-.18c-.046-.462-.261-.797-.393-.962-.05-.067-.088-.106-.093-.111z" transform="translate(-27 -87) translate(0 -.041) translate(12.72 87.361) translate(14.365 .656)"/>
                        <path fill="#FFF" d="M21.55 34.084l.025.003 1.41.524c.03.012.052.04.055.074.002.033-.014.065-.043.08l-1.31.748c-.023.013-.052.008-.07-.014-.01-.014-.014-.033-.01-.05l.125-.51c.01-.037.038-.065.075-.073l.568-.12c.003 0 .006-.004.005-.007 0-.004-.003-.007-.006-.007l-.58-.026c-.037-.002-.07-.025-.084-.06l-.204-.483c-.007-.017-.006-.036.003-.052.014-.024.042-.034.066-.024zM15.36 30.72c.175 0 .317.145.317.325v.943h.93c.862 0 1.564.717 1.564 1.599 0 .881-.702 1.599-1.565 1.599-.862 0-1.564-.718-1.564-1.6v-.949h-.323c-.176 0-.318-.145-.318-.324 0-.18.142-.325.318-.325h.323v-.943c0-.18.142-.325.318-.325zm3.281 1.268c.176 0 .318.145.318.325v2.548c0 .18-.142.325-.318.325-.175 0-.317-.146-.317-.325v-2.548c0-.18.142-.325.317-.325zm1.224-1.268c.175 0 .317.145.317.325v.943h.796c.175 0 .318.145.318.325 0 .179-.143.324-.318.324h-.796v.95c0 .519.398.936.905.95.175.004.314.153.31.332-.005.176-.146.316-.318.316h-.008c-.41-.01-.793-.182-1.08-.481-.286-.3-.444-.697-.444-1.117v-.95h-.135c-.176 0-.318-.145-.318-.324 0-.18.142-.325.318-.325h.135v-.943c0-.18.142-.325.318-.325zm-3.259 1.917h-.929v.95c0 .523.417.95.93.95.512 0 .929-.427.929-.95 0-.524-.417-.95-.93-.95zm2.035-1.53c.195 0 .353.162.353.361 0 .2-.158.36-.353.36-.195 0-.353-.16-.353-.36 0-.199.158-.36.353-.36z" transform="translate(-27 -87) translate(0 -.041) translate(12.72 87.361) translate(14.365 .656)"/>
                    </g>
                </g>
            </g>
        </g>
    </g>
</svg>
