<svg xmlns="http://www.w3.org/2000/svg" width="192" height="192" viewBox="0 0 192 192">
    <g fill="none" fill-rule="evenodd">
        <g>
            <g>
                <path fill="#1E556A" d="M192 96.002c.031 30.433-14.42 59.065-38.922 77.12-3.17 2.405-6.493 4.597-9.95 6.561-1.43.803-2.862 1.57-4.363 2.338-26.345 13.03-57.2 13.313-83.779.768-1.675-.803-3.49-1.64-4.991-2.547-3.52-1.906-6.902-4.052-10.124-6.421-43.01-30.992-52.742-90.968-21.744-133.964C49.13-3.138 109.125-12.867 152.135 18.124 177.178 36.165 192.01 65.144 192 96.002" transform="translate(-1516 -1623) translate(1516 1623)"/>
                <path fill="#A3B1C4" d="M62.28 31.291h64c4.42 0 8 3.582 8 8v108c0 4.419-3.58 8-8 8h-64c-4.417 0-8-3.581-8-8v-108c0-4.418 3.583-8 8-8z" transform="translate(-1516 -1623) translate(1516 1623)"/>
                <path fill="#8C9EB5" d="M126.28 31.291c4.42 0 8 3.582 8 8v108c0 4.419-3.58 8-8 8h-64c-4.417 0-8-3.581-8-8l72-116z" transform="translate(-1516 -1623) translate(1516 1623)"/>
            </g>
        </g>
    </g>
</svg>
