<svg xmlns="http://www.w3.org/2000/svg" width="47" height="48" viewBox="0 0 47 48">
    <g fill="none" fill-rule="evenodd">
        <g>
            <g>
                <g>
                    <g>
                        <g>
                            <path fill="#419AC8" d="M46.08 23.04c.008 7.304-3.46 14.175-9.341 18.51-.761.577-1.559 1.102-2.388 1.574-.344.193-.687.377-1.047.561-6.323 3.127-13.728 3.195-20.107.184-.402-.192-.838-.393-1.198-.611-.845-.457-1.657-.972-2.43-1.541C-.753 34.279-3.089 19.885 4.351 9.566 11.79-.754 26.19-3.088 36.512 4.35c6.01 4.33 9.57 11.284 9.568 18.69" transform="translate(-199 -87) translate(0 -.041) translate(12.72 87.361) translate(172.8) translate(14.365 .656)"/>
                            <path fill="#FFF" d="M24.338 22.56c2.519 0 4.56 2.042 4.56 4.56v2.46c0 1.16-.94 2.1-2.1 2.1h-8.206c-1.16 0-2.1-.94-2.1-2.1v-2.46c0-2.518 2.042-4.56 4.56-4.56h3.286zm-8.596 1.403c.07 0 .138.002.207.006-.48.704-.777 1.54-.828 2.442l-.007.272-.001 4.295H11.28c-.928 0-1.68-.752-1.68-1.68v-1.827c0-1.937 1.57-3.508 3.508-3.508h2.634zm16.714 0c1.872 0 3.402 1.468 3.502 3.315l.005.193v1.828c0 .879-.675 1.6-1.534 1.673l-.145.006H30.45v-4.295l-.008-.272c-.05-.903-.348-1.738-.828-2.442l.104-.004.104-.002h2.634zm-18.031-6.665c1.522 0 2.757 1.257 2.757 2.807s-1.235 2.806-2.757 2.806c-1.523 0-2.757-1.257-2.757-2.806 0-1.55 1.234-2.807 2.757-2.807zm17.23 0c1.523 0 2.757 1.257 2.757 2.807s-1.234 2.806-2.757 2.806c-1.522 0-2.757-1.257-2.757-2.806 0-1.55 1.235-2.807 2.757-2.807zM23.04 13.44c2.094 0 3.79 1.727 3.79 3.858 0 2.131-1.696 3.859-3.79 3.859-2.094 0-3.79-1.728-3.79-3.859 0-2.13 1.696-3.858 3.79-3.858z" transform="translate(-199 -87) translate(0 -.041) translate(12.72 87.361) translate(172.8) translate(14.365 .656)"/>
                        </g>
                    </g>
                </g>
            </g>
        </g>
    </g>
</svg>
