<svg xmlns="http://www.w3.org/2000/svg" width="55" height="55" viewBox="0 0 55 55">
    <g fill="none" fill-rule="evenodd">
        <g>
            <g>
                <g>
                    <g transform="translate(-273 -322) translate(-2 322) translate(240) translate(35)">
                        <circle cx="27.5" cy="27.5" r="27.5" fill="#03131D" fill-opacity=".3"/>
                        <path fill="#FFF" d="M27.001 20c.828 0 1.499.671 1.499 1.499V26.5h5.001c.828 0 1.499.671 1.499 1.499V28c0 .828-.671 1.499-1.499 1.499H28.5v5.001c0 .828-.671 1.499-1.499 1.499H27c-.828 0-1.499-.671-1.499-1.499l-.001-5.001h-5c-.828 0-1.499-.671-1.499-1.499V28c0-.828.671-1.499 1.499-1.499H25.5v-5.001c0-.828.671-1.499 1.499-1.499H27z"/>
                    </g>
                </g>
            </g>
        </g>
    </g>
</svg>
