<svg xmlns="http://www.w3.org/2000/svg" width="108" height="108" viewBox="0 0 108 108">
    <g fill="none" fill-rule="evenodd">
        <g>
            <g>
                <g>
                    <path fill="#FFF" d="M19.813 27.366c-.481 0-.942-.19-1.282-.531-.34-.34-.531-.802-.531-1.283V1.813C18 .813 18.812 0 19.813 0h23.74c1 0 1.813.812 1.813 1.813v23.74c0 .48-.19.942-.53 1.282-.34.34-.802.531-1.283.531h-23.74zm18.13-20.114H25.253v12.691h12.692V7.253zM43.554 60h-23.74C18.812 60 18 59.188 18 58.187v-23.74c0-1 .812-1.812 1.813-1.812h23.74c1 0 1.813.812 1.813 1.813v23.739c0 1.001-.812 1.813-1.813 1.813zm-5.61-20.113H25.253v12.691h12.692V39.887zm14.505-12.52c-.48 0-.942-.192-1.282-.532-.34-.34-.531-.802-.53-1.283V1.813c0-1 .81-1.813 1.812-1.813h23.74C77.188 0 78 .812 78 1.813v23.74c0 .48-.19.942-.53 1.282-.34.34-.802.531-1.283.531H52.448zm18.13-20.115H57.887v12.691h12.69V7.253zm5.44 52.578h-23.74c-1.002 0-1.813-.811-1.813-1.813V34.278c0-1.002.812-1.813 1.813-1.813h23.74c1 0 1.813.811 1.813 1.813v23.74c0 1-.812 1.812-1.813 1.812zM54.26 36.26v5.44H59.7v-5.44h-5.439zM59.7 50.766h-5.439v5.44H59.7v-5.44zm1.813-7.252v5.44h5.439v-5.44h-5.44zm12.692-7.252h-5.44V41.7h5.44v-5.44zm-5.44 14.504v5.44h5.44v-5.44h-5.44z" transform="translate(-1781 -2077) translate(1781 2077) translate(15 18)"/>
                    <g>
                        <path fill="#C51D47" d="M36 18c.006 5.707-2.704 11.075-7.298 14.46-.594.451-1.217.862-1.865 1.23-.269.151-.537.295-.818.439-4.94 2.443-10.725 2.496-15.709.144-.314-.15-.655-.308-.936-.478-.66-.357-1.294-.76-1.898-1.204-8.064-5.81-9.89-17.056-4.077-25.118C9.212-.588 20.46-2.413 28.525 3.398 33.221 6.781 36.002 12.214 36 18" transform="translate(-1781 -2077) translate(1781 2077) translate(15 18) translate(0 36)"/>
                        <path fill="#FFF" d="M22.695 26.59l4.29-16.966c.095-.376-.275-.684-.656-.614-.056.01-.113.029-.168.057L9.301 17.53c-.455.229-.378.839.122.96l6.971 1.7c.188.046.38.05.565.016.249-.045.48-.16.66-.333l4.072-3.921-2.42 5.23c-.133.287-.129.61.013.891l2.323 4.624c.123.245.394.337.637.292.208-.038.394-.175.45-.399" transform="translate(-1781 -2077) translate(1781 2077) translate(15 18) translate(0 36)"/>
                    </g>
                </g>
            </g>
        </g>
    </g>
</svg>
