<svg xmlns="http://www.w3.org/2000/svg" width="192" height="192" viewBox="0 0 192 192">
    <g fill="none" fill-rule="evenodd">
        <g>
            <g>
                <path d="M0 0H192V192H0z" transform="translate(-502 -304) translate(502 304)"/>
                <path fill="#104A58" d="M192 96.002c.031 30.43-14.417 59.062-38.922 77.12-3.17 2.405-6.493 4.597-9.95 6.561-1.43.803-2.862 1.57-4.363 2.338-26.345 13.03-57.2 13.313-83.779.768-1.675-.803-3.49-1.64-4.991-2.547-3.52-1.906-6.902-4.052-10.124-6.421-43.01-30.992-52.742-90.968-21.744-133.964C49.13-3.138 109.125-12.867 152.135 18.124c25.04 18.041 39.875 47.02 39.865 77.878" transform="translate(-502 -304) translate(502 304)"/>
                <path fill="#FFF" d="M90.07 92.488H58.418c-.641 0-1.256-.255-1.71-.708-.453-.454-.707-1.07-.707-1.71V58.417C56 57.083 57.083 56 58.417 56h31.654c1.334 0 2.417 1.083 2.417 2.417V90.07c0 .64-.254 1.256-.708 1.71-.453.453-1.068.708-1.71.708zM82.592 65.67H65.67V82.59h16.922V65.67zm7.48 70.33H58.417c-1.335 0-2.417-1.082-2.417-2.417V101.93c0-1.334 1.083-2.417 2.417-2.417h31.654c1.334 0 2.417 1.083 2.417 2.417v31.653c0 1.335-1.082 2.417-2.417 2.417zm-7.48-26.817H65.67v16.921h16.922v-16.921zm50.992-16.695H101.93c-.641 0-1.257-.255-1.71-.708-.453-.454-.708-1.07-.707-1.71V58.417c0-1.334 1.08-2.417 2.417-2.417h31.652c1.336 0 2.417 1.083 2.417 2.417V90.07c0 .64-.254 1.256-.707 1.71-.454.453-1.069.708-1.71.708zm-7.48-26.818h-16.92V82.59h16.92V65.67zm7.254 70.104h-31.654c-1.335 0-2.417-1.082-2.417-2.417v-31.653c0-1.336 1.083-2.417 2.417-2.417h31.654c1.334 0 2.417 1.081 2.417 2.417v31.653c0 1.335-1.082 2.417-2.417 2.417zM111.6 104.348h-7.252v7.252h7.252v-7.252zm0 19.339h-7.252v7.252h7.252v-7.252zm9.669-9.67h-7.252v7.253h7.252v-7.253zm9.67-9.67h-7.253v7.253h7.253v-7.252zm0 19.34h-7.253v7.252h7.253v-7.252z" transform="translate(-502 -304) translate(502 304)"/>
            </g>
        </g>
    </g>
</svg>
