<svg xmlns="http://www.w3.org/2000/svg" width="108" height="108" viewBox="0 0 108 108">
    <g fill="none" fill-rule="evenodd">
        <g fill="#FFF">
            <g>
                <path d="M22.994 51.103c-.529 0-1.036-.21-1.41-.585-.374-.374-.584-.882-.584-1.41V22.993c0-1.1.893-1.994 1.994-1.994h26.114c1.101 0 1.994.893 1.994 1.994v26.113c0 .53-.21 1.037-.583 1.411-.374.375-.882.585-1.41.585H22.993zm19.944-22.126H28.977v13.96h13.96v-13.96zM49.108 87H22.994C21.893 87 21 86.107 21 85.006V58.893c0-1.101.893-1.995 1.994-1.995h26.114c1.101 0 1.994.894 1.994 1.995v26.113c0 1.101-.892 1.994-1.994 1.994zm-6.17-22.124H28.977v13.96h13.96v-13.96zm15.955-13.773c-.53 0-1.037-.21-1.41-.585-.375-.374-.585-.882-.584-1.41V22.993c0-1.1.892-1.994 1.994-1.994h26.113c1.102 0 1.994.893 1.994 1.994v26.113c0 .53-.21 1.037-.584 1.411-.374.375-.881.585-1.41.585H58.893zm19.942-22.126h-13.96v13.96h13.96v-13.96zm5.984 57.837H58.705c-1.101 0-1.994-.893-1.994-1.995V58.706c0-1.102.893-1.994 1.994-1.994H84.82c1.101 0 1.995.892 1.995 1.994V84.82c0 1.102-.893 1.995-1.995 1.995zM60.887 60.887v5.983h5.983v-5.983h-5.983zm5.983 15.955h-5.983v5.983h5.983v-5.983zm1.994-7.978v5.983h5.983v-5.983h-5.983zm13.961-7.977h-5.984v5.983h5.984v-5.983zm-5.984 15.955v5.983h5.984v-5.983h-5.984z" transform="translate(-2059 -2077) translate(2059 2077)"/>
            </g>
        </g>
    </g>
</svg>
