<svg xmlns="http://www.w3.org/2000/svg" width="47" height="48" viewBox="0 0 47 48">
    <g fill="none" fill-rule="evenodd">
        <g>
            <g>
                <g>
                    <g>
                        <g>
                            <path d="M0 0H46.08V46.08H0z" transform="translate(-113 -87) translate(0 -.041) translate(12.72 87.361) translate(86.4) translate(14.365 .656)"/>
                            <path fill="#2BA73C" d="M0 23.04C-.008 15.736 3.46 8.864 9.341 4.53c.761-.577 1.559-1.102 2.388-1.574.344-.193.687-.377 1.047-.561C19.1-.732 26.504-.8 32.883 2.21c.402.192.838.393 1.198.611.845.457 1.657.972 2.43 1.541 10.322 7.438 12.658 21.832 5.219 32.151-7.44 10.32-21.84 12.654-32.162 5.216C3.558 37.4-.002 30.446 0 23.04" transform="translate(-113 -87) translate(0 -.041) translate(12.72 87.361) translate(86.4) translate(14.365 .656)"/>
                            <path fill="#FFF" d="M20 13.914l-4.624 19.593c-.102.435.296.79.707.71.06-.012.121-.034.18-.066l18.17-9.774c.49-.264.407-.968-.13-1.109l-7.514-1.964c-.201-.052-.41-.057-.608-.018-.268.053-.518.185-.712.385L21.08 26.2l2.609-6.04c.143-.332.137-.705-.014-1.03l-2.504-5.34c-.133-.282-.425-.388-.687-.336-.224.043-.424.201-.485.46" transform="translate(-113 -87) translate(0 -.041) translate(12.72 87.361) translate(86.4) translate(14.365 .656)"/>
                        </g>
                    </g>
                </g>
            </g>
        </g>
    </g>
</svg>
