<svg xmlns="http://www.w3.org/2000/svg" width="47" height="48" viewBox="0 0 47 48">
    <g fill="none" fill-rule="evenodd">
        <g>
            <g>
                <g>
                    <g>
                        <g>
                            <path d="M0 0H46.08V46.08H0z" transform="translate(-286 -87) translate(0 -.041) translate(12.72 87.361) translate(259.2) translate(14.365 .656)"/>
                            <path fill="#C51D47" d="M46.08 23.04c.008 7.304-3.46 14.176-9.341 18.51-.761.577-1.559 1.102-2.388 1.574-.344.193-.687.377-1.047.561-6.323 3.127-13.728 3.195-20.107.184-.402-.192-.838-.393-1.198-.611-.845-.457-1.657-.972-2.43-1.541C-.753 34.279-3.089 19.885 4.351 9.566 11.79-.754 26.19-3.088 36.512 4.35c6.01 4.33 9.57 11.284 9.568 18.69" transform="translate(-286 -87) translate(0 -.041) translate(12.72 87.361) translate(259.2) translate(14.365 .656)"/>
                            <path fill="#FFF" d="M25.322 34.72l4.624-19.599c.103-.435-.296-.79-.706-.71-.06.012-.122.034-.181.066l-18.175 9.777c-.49.264-.407.969.132 1.11l7.515 1.963c.202.053.41.057.608.019.268-.053.518-.185.712-.386l4.39-4.529-2.61 6.042c-.143.332-.138.705.014 1.03l2.504 5.341c.133.283.425.389.688.337.223-.043.424-.201.485-.46" transform="translate(-286 -87) translate(0 -.041) translate(12.72 87.361) translate(259.2) translate(14.365 .656)"/>
                        </g>
                    </g>
                </g>
            </g>
        </g>
    </g>
</svg>
