<svg xmlns="http://www.w3.org/2000/svg" xmlns:xlink="http://www.w3.org/1999/xlink" width="192" height="192" viewBox="0 0 192 192">
    <defs>
        <path id="peld12hl7a" d="M192 96c0 53.02-42.98 96-96 96S0 149.02 0 96 42.98 0 96 0s96 42.98 96 96"/>
    </defs>
    <g fill="none" fill-rule="evenodd">
        <g>
            <g>
                <g>
                    <g transform="translate(-1756 -1623) translate(1756 1623)">
                        <use fill="#FFF" xlink:href="#peld12hl7a"/>
                    </g>
                    <g fill-rule="nonzero">
                        <path fill="#D3882F" d="M68.051 13.407c-3.016-2.473-7.57-4.145-12.97-4.145-1.85 0-3.583.199-5.192.558 2.014-.22 4.166-.08 6.71.57 4.62 1.18 7.707 3.417 9.424 5.817.208-.306.422-.612.64-.916-5.954 8.408-10.248 18.79-11.982 27.675l.06-.32c-2.067-10.276-7.53-22.533-14.988-31.364 3.746-3.167 9.222-5.164 15.328-5.164 5.878 0 11.19 1.923 14.92 4.885-.666.776-1.316 1.578-1.95 2.404z" transform="translate(-1756 -1623) translate(1756 1623) translate(41 29.444)"/>
                        <path fill="#246AB6" d="M54.75 46.891c-26.677-71.068-77.434-21.645-26.408-9.934C3.57 44.427 18.545 69.1 47.34 45.478c-21.804 35.276-53.51 4.199-29.16-8.724C2.65 35.233-8.278 12.927 8.227 3.038 30.87-10.531 52.202 24.45 54.75 46.89z" transform="translate(-1756 -1623) translate(1756 1623) translate(41 29.444)"/>
                        <path fill="#246AB6" d="M54.733 46.891c26.677-71.068 77.434-21.645 26.408-9.934 24.772 7.47 9.797 32.144-18.998 8.521 21.804 35.276 53.51 4.199 29.16-8.724 15.531-1.521 26.457-23.827 9.952-33.716C78.613-10.531 57.283 24.45 54.733 46.89z" transform="translate(-1756 -1623) translate(1756 1623) translate(41 29.444)"/>
                    </g>
                </g>
                <path fill="#246AB6" fill-rule="nonzero" d="M151.176 124.415c3.442 0 6-.915 7.673-2.746 1.674-1.83 2.511-4.497 2.511-8.002 0-3.473-.844-6.187-2.534-8.143-1.69-1.955-4.334-2.933-7.932-2.933-1.44 0-2.8.14-4.083.422-.188.094-.282.204-.282.329v3.05c0 .094.04.173.118.235.078.063.148.094.211.094.188 0 .712-.086 1.572-.258.86-.172 1.792-.258 2.793-.258 1.94 0 3.379.532 4.318 1.596.938 1.063 1.408 3.066 1.408 6.007 0 1.94-.22 3.418-.657 4.435-.438 1.017-1.064 1.705-1.878 2.065-.813.36-1.877.54-3.191.54-.939 0-1.987-.047-3.145-.14-1.157-.095-1.83-.142-2.018-.142-.219 0-.328.11-.328.329v3.004c0 .219.11.328.328.328l1.267.047c2.535.094 3.818.14 3.849.14zm-8.623-.282c.219 0 .328-.11.328-.328v-13.892c0-2.441-.61-4.271-1.83-5.492-1.22-1.22-2.738-1.83-4.553-1.83-1.533 0-2.643.078-3.332.235-.188 0-.281.11-.281.328v3.192c0 .219.093.328.281.328h.047c.47-.094 1.158-.14 2.065-.14 1.095 0 1.948.289 2.558.868.61.578.915 1.462.915 2.651v10.466h-6.43c-.219 0-.328.11-.328.329v2.957c0 .219.11.328.328.328h10.232zm-22.985.47c3.63 0 6.235-1.002 7.815-3.004 1.58-2.003 2.37-4.646 2.37-7.932 0-3.66-.868-6.422-2.605-8.284-1.736-1.861-4.028-2.792-6.876-2.792-2.315 0-4.302.61-5.96 1.83-1.658 1.22-2.488 3.207-2.488 5.96 0 2.316.704 3.998 2.112 5.046 1.408 1.048 3.567 1.572 6.477 1.572.094 0 .172-.039.235-.117.062-.078.094-.164.094-.258v-2.487c0-.094-.032-.18-.094-.259-.063-.078-.141-.117-.235-.117-1.408 0-2.464-.305-3.168-.915-.704-.61-1.056-1.572-1.056-2.887 0-2.503 1.361-3.754 4.083-3.754 2.003 0 3.348.633 4.037 1.9.688 1.268 1.032 3.06 1.032 5.374 0 2.003-.18 3.536-.54 4.6-.36 1.064-.923 1.807-1.69 2.23-.766.422-1.822.633-3.167.633-.876 0-1.838-.055-2.887-.164-1.048-.11-1.681-.18-1.9-.212l-1.033-.14c-.094-.032-.172-.008-.235.07-.062.078-.093.164-.093.258v3.004c0 .188.093.297.281.328.5.094 1.299.204 2.394.329 1.095.125 2.127.188 3.097.188zm-14.208-8.965c1.064-.438 1.87-.938 2.417-1.501.548-.564.916-1.275 1.103-2.136.188-.86.282-2.01.282-3.45v-5.256c0-.22-.11-.329-.329-.329h-3.473c-.219 0-.328.11-.328.329v12.015c0 .219.11.328.328.328zm-4.399 8.495c.094 0 .18-.031.259-.094.078-.062.117-.14.117-.234v-13.658c0-2.66-.688-4.584-2.065-5.773s-3.395-1.783-6.055-1.783c-1.282 0-2.675.11-4.177.328-1.502.22-2.847.517-4.036.892-.188.031-.282.157-.282.376v19.618c0 .219.11.328.329.328h15.91zm-3.754-3.614h-8.354v-13.798c1-.219 2.346-.328 4.036-.328 1.377 0 2.44.226 3.191.68.751.454 1.127 1.385 1.127 2.793v10.653zm-34.424 4.084c2.128 0 3.966-.477 5.515-1.432 1.549-.954 2.73-2.276 3.543-3.966.814-1.69 1.22-3.614 1.22-5.772v-10.138c0-.22-.109-.329-.328-.329h-3.52c-.219 0-.328.11-.328.329v10.138c0 2.284-.509 4.106-1.526 5.467-1.017 1.361-2.542 2.042-4.576 2.042-1.376 0-2.518-.313-3.426-.939-.907-.626-1.596-1.517-2.065-2.675 2.41-.282 4.271-1.095 5.585-2.44 1.314-1.346 1.971-3.067 1.971-5.163v-6.43c0-.22-.11-.329-.328-.329h-3.426c-.22 0-.329.11-.329.329v6.852c0 1.19-.313 2.175-.939 2.957-.625.782-1.658 1.392-3.097 1.83-.063-.625-.094-1.126-.094-1.501v-10.138c0-.22-.11-.329-.329-.329h-3.473c-.219 0-.328.11-.328.329v10.138c0 2.158.407 4.083 1.22 5.772.814 1.69 1.995 3.012 3.544 3.966 1.548.955 3.387 1.432 5.514 1.432zm-21.764 0c5.038 0 7.556-2.535 7.556-7.604v-13.704c0-.22-.094-.329-.281-.329H37.077v-4.74c0-.219-.11-.328-.329-.328h-3.473c-.219 0-.329.11-.329.328v7.979c0 .219.11.328.329.328h11.217v9.997c0 1.408-.258 2.448-.774 3.121-.517.673-1.604 1.01-3.262 1.01-.532 0-1.103-.032-1.713-.095-.61-.062-.994-.093-1.15-.093-.25 0-.376.109-.376.328v3.145c0 .187.094.297.282.328.845.22 2.018.329 3.52.329zm90.411 37.642c2.629 0 4.584-.626 5.867-1.878 1.283-1.251 1.924-3.316 1.924-6.195v-13.188c0-.22-.11-.329-.328-.329h-15.958c-.219 0-.328.11-.328.329v2.91c0 .219.11.328.328.328h12.11v10.466c0 1.19-.322 2.097-.963 2.722-.641.626-1.588.94-2.84.94-.406 0-.938-.048-1.595-.142-.125-.03-.22-.015-.282.047-.062.063-.094.141-.094.235v3.285c0 .22.11.344.329.376.75.062 1.361.094 1.83.094zm-5.022 7.227c.22 0 .329-.11.329-.328v-18.68c0-.219-.11-.328-.329-.328h-3.473c-.219 0-.328.11-.328.328v18.68c0 .219.11.328.328.328h3.473zm-8.572-7.65c.22 0 .329-.11.329-.328v-14.08c0-2.472-.696-4.28-2.089-5.421-1.392-1.142-3.215-1.713-5.467-1.713-1.002 0-2.042.094-3.122.281-1.079.188-2.057.438-2.933.751-.188.032-.281.157-.281.376v3.191c0 .22.093.329.281.329h.094c1.971-.657 3.833-.986 5.585-.986 1.126 0 2.05.243 2.77.728.719.485 1.079 1.369 1.079 2.651v13.893c0 .219.11.328.328.328h3.426zm-30.49 0c.188 0 .282-.11.282-.328V146.99c.72-.876 1.611-1.635 2.675-2.276 1.064-.641 2.143-.962 3.238-.962 1.315 0 2.292.43 2.934 1.29.641.861.962 2.058.962 3.591v9.574h-4.553c-.187 0-.281.11-.281.329v2.957c0 .219.094.328.281.328h8.401c.063 0 .133-.031.212-.094.078-.062.117-.14.117-.234v-13.189c0-2.471-.65-4.427-1.948-5.866-1.298-1.44-3.105-2.16-5.42-2.16-1.377 0-2.676.353-3.896 1.057-1.22.704-2.128 1.431-2.722 2.182h-.047v-.188c0-.531-.047-1.032-.14-1.501-.095-.47-.189-.798-.282-.986-.094-.125-.235-.188-.423-.188H83.31c-.25 0-.329.125-.235.376.188.532.321 1.001.4 1.408.078.407.117.891.117 1.455v17.6c0 .219.11.328.328.328h3.426zm-7.305 0c.22 0 .329-.11.329-.328v-2.957c0-.22-.11-.329-.329-.329h-2.3v-10.935c0-2.503-.711-4.295-2.135-5.374-1.424-1.08-3.23-1.62-5.42-1.62-2.128 0-4.13.345-6.008 1.033-.188.032-.282.157-.282.376v3.191c0 .094.04.172.118.235.078.063.164.063.258 0 1.189-.344 2.143-.579 2.863-.704.72-.125 1.486-.188 2.3-.188 1.376 0 2.424.235 3.144.704.72.47 1.08 1.361 1.08 2.675v10.607h-9.904c-.219 0-.328.11-.328.329v2.957c0 .219.11.328.328.328h16.286zm-20.493 0c.22 0 .329-.11.329-.328v-20.51c0-.22-.11-.329-.329-.329h-3.473c-.219 0-.328.11-.328.329v20.51c0 .219.109.328.328.328h3.473z" transform="translate(-1756 -1623) translate(1756 1623)"/>
            </g>
        </g>
    </g>
</svg>
