<svg width="473" height="208" xmlns="http://www.w3.org/2000/svg">
 <title>WeBit</title>
 <defs>
  <path id="path-1" d="m22.21639,0.02218c4.05884,0 7.34903,3.33627 7.34903,7.45195l0,21.66588l21.50215,0c19.96051,0 36.19966,16.46663 36.19966,36.70671c0,20.24061 -16.23915,36.70724 -36.19966,36.70724c-19.96104,0 -36.2002,-16.46663 -36.2002,-36.70671l0,-21.80328l-7.48512,0c-4.05883,0 -7.34902,-3.33633 -7.34902,-7.45201c0,-4.11569 3.29019,-7.45195 7.34902,-7.45195l7.48512,0l0,-21.66588c0,-4.11568 3.29018,-7.45195 7.34902,-7.45195zm28.85118,44.02179l-21.50215,0l0,21.80328c0,12.02199 9.64572,21.80282 21.5016,21.80282c11.85643,0 21.50215,-9.78083 21.50215,-21.80282c0,-12.02245 -9.64572,-21.80328 -21.5016,-21.80328z"/>
  <path id="path-3" d="m7.40563,0.05154c4.05885,0 7.34899,3.33626 7.34899,7.45195l0,58.51004c0,4.11569 -3.29014,7.45196 -7.34899,7.45196c-4.05885,0 -7.34906,-3.33627 -7.34906,-7.45196l0,-58.51004c0,-4.11569 3.29021,-7.45195 7.34906,-7.45195z"/>
  <path id="path-5" d="m17.88445,0.02232c4.05885,0 7.34899,3.33633 7.34899,7.45201l0,0l0,21.66588l18.41777,0c4.05884,0 7.34899,3.33626 7.34899,7.45195c0,4.11568 -3.29015,7.45194 -7.34899,7.45194l0,0l-18.41777,0l0,21.80335c0,11.91763 9.19826,21.49142 20.94035,21.79504c4.05724,0.1049 7.26247,3.5256 7.15905,7.64018c-0.10181,4.04945 -3.37131,7.26153 -7.34303,7.26153c-0.06367,0 -0.12681,0 -0.19108,-0.00277c-9.47313,-0.24453 -18.33988,-4.17034 -24.96709,-11.05319c-6.63968,-6.89608 -10.29625,-16.00185 -10.29625,-25.64079l0,0l0,-21.80335l-3.1301,0c-4.05884,0 -7.34906,-3.33626 -7.34906,-7.45194c0,-4.11569 3.29022,-7.45195 7.34906,-7.45195l0,0l3.1301,0l0,-21.66588c0,-4.11568 3.29021,-7.45201 7.34906,-7.45201z"/>
  <path id="path-7" d="m8.20992,0.00891c4.50958,0 8.16555,3.70724 8.16555,8.27996c0,4.57333 -3.65597,8.27996 -8.16555,8.27996c-4.50958,0 -8.16562,-3.70663 -8.16562,-8.27996c0,-4.57272 3.65604,-8.27996 8.16562,-8.27996z"/>
  <path id="path-9" d="m0.19276,0.67353c0.31957,-0.55255 0.96843,-0.77333 1.53566,-0.56247l0,0l32.62969,12.05008c0.70932,0.26165 1.20194,0.91852 1.2624,1.68139c0.06039,0.7623 -0.32393,1.48984 -0.98257,1.86299l0,0l-30.32702,17.15275c-0.52694,0.29918 -1.20194,0.18547 -1.60422,-0.30856c-0.2624,-0.32182 -0.3386,-0.76066 -0.23901,-1.16527l0,0l2.90208,-11.71007c0.20959,-0.84511 0.87802,-1.4937 1.71964,-1.66979l0,0l13.14169,-2.75005c0.08163,-0.01656 0.1372,-0.09218 0.13009,-0.17554c-0.00596,-0.08335 -0.07292,-0.14903 -0.15569,-0.15234l0,0l-13.40624,-0.59782c-0.85844,-0.03864 -1.6195,-0.57187 -1.95864,-1.37226l0,0l-4.70121,-11.09296c-0.16273,-0.38419 -0.15516,-0.82963 0.05335,-1.19008z"/>
 </defs>
 <g>
  <title>Layer 1</title>
  <path fill-opacity="0" fill="#000000" stroke-linecap="round" stroke-width="15" stroke="#c4c4c4" id="Path-2" d="m54.43064,69.25288l0,53.75645c0,21.68991 11.33893,32.53487 34.01677,32.53487c22.67784,0 33.66146,-10.84496 32.95085,-32.53487l0,-25.66202"/>
  <path transform="rotate(90 177.97 125.511)" fill-opacity="0" fill="#000000" stroke-linecap="round" stroke-width="15" stroke="#c4c4c4" id="Path-2-Copy-2" d="m207.4694,92.01118l0,39.50852c0,18.32765 -9.98472,27.49148 -29.95415,27.49148c-19.96942,0 -29.64126,-9.16383 -29.01552,-27.49148l0,-10.05682c0.79405,-12.41336 6.33537,-18.62004 16.62398,-18.62004c10.2886,0 15.34159,6.20668 15.15898,18.62004"/>
  <line stroke="#c4c4c4" stroke-linecap="round" stroke-width="15" id="Path-2-Copy" y2="97.34731" x2="88.40212" y1="116.5" x1="88.5"/>
  <path stroke="null" id="svg_10" d="m245.1242,102.4411l0,22.19276c0,12.23953 10.32471,22.19276 23.01231,22.19276s23.00848,-9.95706 23.00848,-22.19276c0,-12.23953 -10.32088,-22.19276 -23.00848,-22.19276l-23.01231,0zm23.01231,59.55856c-21.36173,0 -38.74064,-16.76233 -38.74064,-37.3658l0,-22.19276l-8.00778,0c-4.34664,0 -7.86608,-3.40072 -7.86608,-7.58652s3.52327,-7.58269 7.86608,-7.58269l8.00778,0l0,-22.05873c0,-4.18963 3.52327,-7.58269 7.86608,-7.58269s7.86225,3.39306 7.86225,7.58269l0,22.05873l23.01231,0c21.3579,0 38.73681,16.7585 38.73681,37.36197s-17.37891,37.3658 -38.73681,37.3658zm50.3904,0c-4.34281,0 -7.86608,-3.39689 -7.86608,-7.58269l0,-59.56622c0,-4.18963 3.52327,-7.58269 7.86608,-7.58269s7.86225,3.39306 7.86225,7.58269l0,59.55856c0,4.18963 -3.51944,7.58269 -7.86225,7.58269m60.56576,-15.17303c-12.56505,-0.30637 -22.41105,-10.0528 -22.41105,-22.1851l0,-22.19276l19.71116,0c4.34281,0 7.86608,-3.39689 7.86608,-7.58652s-3.52327,-7.58269 -7.86608,-7.58269l-19.71116,0l0,-22.05873c0,-4.18963 -3.51944,-7.58269 -7.86225,-7.58269s-7.86608,3.39306 -7.86608,7.58269l0,22.05873l-3.34711,0c-4.34664,0 -7.86608,3.39306 -7.86608,7.58269c0,4.18963 3.52327,7.58269 7.86608,7.58269l3.34711,0l0,22.19659c0,9.81154 3.91389,19.0831 11.01787,26.10283c7.09249,7.00441 16.58234,10.99873 26.7194,11.24765l0.20297,0.00383c4.2509,0 7.75119,-3.27051 7.85842,-7.39121c0.11489,-4.18963 -3.31647,-7.67077 -7.65928,-7.77417" fill="#ffffff"/>
  <path stroke="null" id="svg_11" d="m327.31495,75.11662c0,4.65684 -3.91007,8.42904 -8.73541,8.42904c-4.82535,0 -8.73924,-3.7722 -8.73924,-8.42521c0,-4.65684 3.91389,-8.43287 8.73924,-8.43287s8.73924,3.77603 8.73924,8.42904m66.70083,94.53466l32.4562,-17.46316c0.70466,-0.37913 1.11443,-1.11825 1.04932,-1.89567c-0.0651,-0.77742 -0.58976,-1.44377 -1.34803,-1.71185l-34.91866,-12.26633c-0.60891,-0.21446 -1.30207,0.01148 -1.64674,0.57444c-0.22212,0.36765 -0.22978,0.81954 -0.05362,1.21017l5.02832,11.29361c0.36382,0.81188 1.17953,1.35569 2.09864,1.39398l14.34583,0.61275c0.08809,0 0.16085,0.06893 0.16468,0.15318c0.00766,0.08425 -0.04979,0.16085 -0.13787,0.18l-14.06244,2.79563c-0.89996,0.18 -1.6161,0.84252 -1.83822,1.70036l-3.10967,11.92167c-0.10723,0.40977 -0.02298,0.85784 0.25658,1.18719c0.42892,0.49785 1.15273,0.61657 1.71568,0.31403" fill="#d32733"/>
 </g>
</svg>